HIERARCHY
ROOT SpineBase
{
  OFFSET 0.000000 0.000000 0.000000
  CHANNELS 6 Xposition Yposition Zposition Zrotation Xrotation Yrotation
  JOINT SpineMid
  {
    OFFSET 0.000000 27.748392 0.000000
    CHANNELS 3 Zrotation Xrotation Yrotation
    JOINT SpineShoulder
    {
      OFFSET -0.054567 20.591991 -0.690732
      CHANNELS 3 Zrotation Xrotation Yrotation
      JOINT Neck
      {
        OFFSET -0.045912 6.809696 -0.511521
        CHANNELS 3 Zrotation Xrotation Yrotation
        JOINT Head
        {
          OFFSET 5.096206 12.670908 0.657946
          CHANNELS 3 Zrotation Xrotation Yrotation
          End Site
          {
            OFFSET 0 0 0
          }
        }
      }
      JOINT ShoulderLeft
      {
        OFFSET -14.138718 -3.838615 -7.742533
        CHANNELS 3 Zrotation Xrotation Yrotation
        JOINT ElbowLeft
        {
          OFFSET -6.175592 -23.797936 -0.122320
          CHANNELS 3 Zrotation Xrotation Yrotation
          JOINT WristLeft
          {
            OFFSET -0.755856 -18.752503 -4.596811
            CHANNELS 3 Zrotation Xrotation Yrotation
            JOINT HandLeft
            {
              OFFSET 0.837641 -6.607300 -0.325296
              CHANNELS 3 Zrotation Xrotation Yrotation
              JOINT HandTipLeft
              {
                OFFSET -0.899602 -6.542200 -1.295211
                CHANNELS 3 Zrotation Xrotation Yrotation
                End Site
                {
                  OFFSET 0 0 0
                }
              }
              JOINT ThumbLeft
              {
                OFFSET 2.996636 -0.382042 -0.657209
                CHANNELS 3 Zrotation Xrotation Yrotation
                End Site
                {
                  OFFSET 0 0 0
                }
              }
            }
          }
        }
      }
      JOINT ShoulderRight
      {
        OFFSET 14.325220 -5.482164 2.706692
        CHANNELS 3 Zrotation Xrotation Yrotation
        JOINT ElbowRight
        {
          OFFSET 2.269091 -23.868501 3.661709
          CHANNELS 3 Zrotation Xrotation Yrotation
          JOINT WristRight
          {
            OFFSET -0.995443 -24.277395 -4.097366
            CHANNELS 3 Zrotation Xrotation Yrotation
            JOINT HandRight
            {
              OFFSET -1.182564 -7.218269 -0.087802
              CHANNELS 3 Zrotation Xrotation Yrotation
              JOINT HandTipRight
              {
                OFFSET -1.585196 -4.519372 -1.827026
                CHANNELS 3 Zrotation Xrotation Yrotation
                End Site
                {
                  OFFSET 0 0 0
                }
              }
              JOINT ThumbRight
              {
                OFFSET -3.316275 0.941594 -4.471995
                CHANNELS 3 Zrotation Xrotation Yrotation
                End Site
                {
                  OFFSET 0 0 0
                }
              }
            }
          }
        }
      }
    }
  }
  JOINT HipLeft
  {
    OFFSET -6.203534 1.124477 -4.773152
    CHANNELS 3 Zrotation Xrotation Yrotation
    JOINT KneeLeft
    {
      OFFSET -9.943295 -30.912581 5.549522
      CHANNELS 3 Zrotation Xrotation Yrotation
      JOINT AnkleLeft
      {
        OFFSET -4.455397 -31.183548 6.836401
        CHANNELS 3 Zrotation Xrotation Yrotation
        JOINT FootLeft
        {
          OFFSET 2.590059 -2.694204 -14.310830
          CHANNELS 3 Zrotation Xrotation Yrotation
          End Site
          {
            OFFSET 0 0 0
          }
        }
      }
    }
  }
  JOINT HipRight
  {
    OFFSET 5.428439 0.386451 -1.486322
    CHANNELS 3 Zrotation Xrotation Yrotation
    JOINT KneeRight
    {
      OFFSET -7.877547 -32.608469 7.211944
      CHANNELS 3 Zrotation Xrotation Yrotation
      JOINT AnkleRight
      {
        OFFSET -6.259773 -30.102176 6.348591
        CHANNELS 3 Zrotation Xrotation Yrotation
        JOINT FootRight
        {
          OFFSET 2.520173 -3.703716 -11.752875
          CHANNELS 3 Zrotation Xrotation Yrotation
          End Site
          {
            OFFSET 0 0 0
          }
        }
      }
    }
  }
}
MOTION
Frames: 16
Frame Time: 0.033333
39.892589 68.963139 318.617516 -0.000000 0.000000 -15.778626 -0.000000 0.000000 15.778626 -0.000000 0.000000 0.000000 -0.000000 0.000000 0.000000 0.000000 0.000000 0.000000 -0.000000 0.000000 0.000000 -0.000000 0.000000 0.000000 -0.000000 0.000000 0.000000 -0.000000 0.000000 0.000000 0.000000 0.000000 0.000000 0.000000 0.000000 0.000000 -0.000000 0.000000 0.000000 -0.000000 0.000000 0.000000 -0.000000 0.000000 0.000000 -0.000000 0.000000 0.000000 0.000000 0.000000 0.000000 0.000000 0.000000 0.000000 -0.000000 0.000000 15.778626 -0.000000 0.000000 0.000000 -0.000000 0.000000 0.000000 0.000000 0.000000 0.000000 -0.000000 0.000000 15.778626 -0.000000 0.000000 0.000000 -0.000000 0.000000 0.000000 0.000000 0.000000 0.000000
39.900957 68.958493 318.583470 0.015944 -0.002532 -15.808745 -0.016031 -0.001907 15.808745 -0.000000 0.000000 0.000000 -0.000000 0.000000 0.000000 0.000000 0.000000 0.000000 -0.000000 0.000000 0.000000 -0.000000 0.000000 0.000000 0.093480 -1.170290 -0.152077 1.171364 0.352523 -0.000989 0.000000 0.000000 0.000000 0.000000 0.000000 0.000000 -0.000000 0.000000 0.000000 -0.000000 0.000000 0.000000 -0.000000 0.000000 0.000000 -1.988748 2.138607 0.089747 0.000000 0.000000 0.000000 0.000000 0.000000 0.000000 -0.016031 -0.001907 15.808745 -0.000000 0.000000 0.000000 -1.998237 -12.625085 -4.527898 0.000000 0.000000 0.000000 -0.016031 -0.001907 15.808745 -0.000000 0.000000 0.000000 -0.000000 0.000000 0.000000 0.000000 0.000000 0.000000
39.910779 68.954204 318.554219 0.032954 -0.008643 -15.836926 -0.034062 -0.000678 15.836928 -0.000000 0.000000 0.000000 -0.000000 0.000000 0.000000 0.000000 0.000000 0.000000 -0.000000 0.000000 0.000000 -0.000000 0.000000 0.000000 0.129383 -2.271367 -0.292038 2.146463 0.695560 0.003596 0.000000 0.000000 0.000000 0.000000 0.000000 0.000000 -0.000000 0.000000 0.000000 -0.000000 0.000000 0.000000 0.805148 -0.733127 0.115609 -4.378778 4.619955 0.142603 0.000000 0.000000 0.000000 0.000000 0.000000 0.000000 -0.034062 -0.000678 15.836928 -0.783579 0.350644 -0.219421 -5.560039 -28.835384 -11.437217 0.000000 0.000000 0.000000 -0.034062 -0.000678 15.836928 -0.000000 0.000000 0.000000 -0.000000 0.000000 0.000000 0.000000 0.000000 0.000000
39.922058 68.950271 318.529762 0.051030 -0.018330 -15.863153 -0.054097 0.003683 15.863162 -0.000000 0.000000 0.000000 -0.000000 0.000000 0.000000 0.000000 0.000000 0.000000 -0.000000 0.000000 0.000000 0.193408 -0.895392 -0.009827 -0.098046 -2.321804 -0.399119 2.911718 0.957147 0.020407 0.000000 0.000000 0.000000 0.000000 0.000000 0.000000 -0.000000 0.000000 0.000000 -0.000000 0.000000 0.000000 1.196740 -1.128518 0.182453 -6.023227 6.436150 0.247218 0.000000 0.000000 0.000000 0.000000 0.000000 0.000000 -0.054097 0.003683 15.863162 -1.057869 0.482089 -0.296235 -12.902510 -43.554465 -21.296193 0.000000 0.000000 0.000000 -0.054097 0.003683 15.863162 -0.000000 0.000000 0.000000 -0.000000 0.000000 0.000000 0.000000 0.000000 0.000000
39.934792 68.946694 318.510098 0.070173 -0.031592 -15.887416 -0.076141 0.011176 15.887443 -0.000000 0.000000 0.000000 -0.000000 0.000000 0.000000 0.000000 0.000000 0.000000 -0.000000 0.000000 0.000000 0.188383 -1.005858 -0.003990 -0.204438 -2.916578 -0.490462 3.455692 1.064005 0.057693 0.000000 0.000000 0.000000 0.000000 0.000000 0.000000 -0.000000 0.000000 0.000000 -0.000000 0.000000 0.000000 1.573224 -1.536742 0.254354 -7.364943 7.991753 0.342846 0.000000 0.000000 0.000000 0.000000 0.000000 0.000000 -0.076141 0.011176 15.887443 -1.252737 0.583297 -0.351455 -21.175064 -52.462905 -31.151892 0.000000 0.000000 0.000000 -0.076141 0.011176 15.887443 -0.000000 0.000000 0.000000 -0.000000 0.000000 0.000000 0.000000 0.000000 0.000000
39.948981 68.943473 318.495228 0.090385 -0.048429 -15.909708 -0.100198 0.021798 15.909765 -0.000000 0.000000 0.000000 -0.000000 0.000000 0.000000 0.000000 0.000000 0.000000 -0.000000 0.000000 0.000000 0.151323 -1.034525 0.005986 -0.353414 -3.286799 -0.546509 3.766558 0.959860 0.122640 0.000000 0.000000 0.000000 0.000000 0.000000 0.000000 -0.000000 0.000000 0.000000 -0.000000 0.000000 0.000000 1.928922 -1.952272 0.330252 -8.428313 9.318986 0.413568 0.000000 0.000000 0.000000 0.000000 0.000000 0.000000 -0.100198 0.021798 15.909765 -1.367616 0.653751 -0.385265 -24.869680 -55.208321 -35.442981 0.000000 0.000000 0.000000 -0.100198 0.021798 15.909765 -0.000000 0.000000 0.000000 -0.000000 0.000000 0.000000 0.000000 0.000000 0.000000
39.966353 68.941146 318.492056 0.108990 -0.072648 -15.900925 -0.124723 0.040008 15.901038 -0.000000 0.000000 0.000000 -0.000000 0.000000 0.000000 0.000000 0.000000 0.000000 -0.000000 0.000000 0.000000 0.058891 -0.886901 0.021811 -0.632019 -3.847722 -0.609736 3.520191 0.547101 0.408351 0.000000 0.000000 0.000000 0.000000 0.000000 0.000000 -0.000000 0.000000 0.000000 -0.000000 0.000000 0.000000 2.615975 -2.706017 0.475290 -9.335279 10.650640 0.366061 0.000000 0.000000 0.000000 0.000000 0.000000 0.000000 -0.124723 0.040008 15.901038 -1.401867 0.737974 -0.403623 -14.867868 -46.681784 -24.228153 0.000000 0.000000 0.000000 -0.124723 0.040008 15.901038 -0.000000 0.000000 0.000000 -0.000000 0.000000 0.000000 0.000000 0.000000 0.000000
39.984331 68.936439 318.490593 0.132889 -0.102644 -15.901257 -0.155926 0.062308 15.901461 -0.000000 0.000000 0.000000 -0.000000 0.000000 0.000000 0.000000 0.000000 0.000000 -0.000000 0.000000 0.000000 -0.000000 0.000000 0.000000 -0.891065 -3.675737 -0.452032 2.937074 -0.580563 0.524382 0.000000 0.000000 0.000000 0.000000 0.000000 0.000000 -0.000000 0.000000 0.000000 -0.000000 0.000000 0.000000 2.831413 -2.898624 0.514422 -10.163369 12.106102 0.329502 0.000000 0.000000 0.000000 0.000000 0.000000 0.000000 -0.155926 0.062308 15.901461 -1.339227 0.727115 -0.388894 -8.268809 -36.751224 -16.024434 0.000000 0.000000 0.000000 -0.155926 0.062308 15.901461 -0.000000 0.000000 0.000000 -0.000000 0.000000 0.000000 0.000000 0.000000 0.000000
40.001327 68.935240 318.484603 0.152581 -0.126237 -15.944396 -0.181389 0.079466 15.944690 -0.000000 0.000000 0.000000 -0.000000 0.000000 0.000000 0.000000 0.000000 0.000000 -0.000000 0.000000 0.000000 -0.000000 0.000000 0.000000 -1.238047 -3.194593 -0.379710 2.331471 -0.478602 0.577427 0.000000 0.000000 0.000000 0.000000 0.000000 0.000000 -0.000000 0.000000 0.000000 -0.000000 0.000000 0.000000 2.667408 -2.811042 0.495666 -9.103092 11.124734 0.120788 0.000000 0.000000 0.000000 0.000000 0.000000 0.000000 -0.181389 0.079466 15.944690 -1.224005 0.704707 -0.361444 -3.806261 -25.573231 -9.574218 0.000000 0.000000 0.000000 -0.181389 0.079466 15.944690 -0.000000 0.000000 0.000000 -0.000000 0.000000 0.000000 0.000000 0.000000 0.000000
40.017272 68.932028 318.482951 0.176786 -0.149323 -15.987882 -0.211077 0.094854 15.988287 -0.000000 0.000000 0.000000 -0.778029 -0.355996 0.180700 0.000000 0.000000 0.000000 -0.000000 0.000000 0.000000 -0.000000 0.000000 0.000000 -1.460624 -2.644563 -0.297945 2.994162 -0.376465 0.314218 0.000000 0.000000 0.000000 0.000000 0.000000 0.000000 -0.000000 0.000000 0.000000 -0.000000 0.000000 0.000000 3.143400 -3.488491 0.632266 -7.491470 8.683951 -0.010081 0.000000 0.000000 0.000000 0.000000 0.000000 0.000000 -0.211077 0.094854 15.988287 -1.145874 0.670112 -0.340212 -4.844672 -28.337700 -10.932682 0.000000 0.000000 0.000000 -0.211077 0.094854 15.988287 -0.000000 0.000000 0.000000 -0.000000 0.000000 0.000000 0.000000 0.000000 0.000000
40.034419 68.930422 318.480876 0.203474 -0.173471 -16.014848 -0.243436 0.110602 16.015391 -0.000000 0.000000 0.000000 -0.892791 -0.420819 0.211711 0.000000 0.000000 0.000000 -0.000000 0.000000 0.000000 -0.000000 0.000000 0.000000 -1.095299 -1.907077 -0.206516 2.225097 -1.677838 0.441009 0.000000 0.000000 0.000000 0.000000 0.000000 0.000000 -0.000000 0.000000 0.000000 -0.418588 -0.728381 0.097942 4.096152 -2.981291 0.534623 -7.683060 6.765374 0.484899 0.000000 0.000000 0.000000 0.000000 0.000000 0.000000 -0.243436 0.110602 16.015391 -1.147410 0.643268 -0.336956 -5.213829 -29.300844 -11.527099 0.000000 0.000000 0.000000 -0.243436 0.110602 16.015391 -0.000000 0.000000 0.000000 -0.000000 0.000000 0.000000 0.000000 0.000000 0.000000
40.048988 68.927282 318.474751 0.226095 -0.183149 -16.011931 -0.267843 0.113677 16.012558 -0.000000 0.000000 0.000000 -1.020273 -0.464932 0.235043 0.000000 0.000000 0.000000 -0.000000 0.000000 0.000000 -0.000000 0.000000 0.000000 -0.531027 -1.648706 -0.190773 1.125210 -1.474661 0.489808 0.000000 0.000000 0.000000 0.000000 0.000000 0.000000 -0.000000 0.000000 0.000000 -0.482663 -0.819164 0.111715 5.234299 -3.159028 0.575827 -5.360058 0.579208 1.063694 0.000000 0.000000 0.000000 0.000000 0.000000 0.000000 -0.267843 0.113677 16.012558 -1.112787 0.566637 -0.319324 -3.655558 -24.589533 -8.874723 0.000000 0.000000 0.000000 -0.267843 0.113677 16.012558 -0.000000 0.000000 0.000000 -0.000000 0.000000 0.000000 0.000000 0.000000 0.000000
40.056026 68.922774 318.464253 0.231540 -0.194030 -15.968604 -0.275986 0.122842 15.969291 -0.000000 0.000000 0.000000 -1.087074 -0.484752 0.245932 0.000000 0.000000 0.000000 -0.000000 0.000000 0.000000 -0.235943 -0.912468 0.092911 -0.318320 -0.319347 -0.222926 1.224266 -1.687387 0.397312 0.000000 0.000000 0.000000 0.000000 0.000000 0.000000 -0.000000 0.000000 0.000000 -0.518886 -0.981362 0.123526 5.957476 -3.407974 0.640149 -3.150833 -3.324788 1.375000 0.000000 0.000000 0.000000 0.000000 0.000000 0.000000 -0.275986 0.122842 15.969291 -1.117796 0.590242 -0.323552 -5.899596 -31.002942 -12.167316 0.000000 0.000000 0.000000 -0.275986 0.122842 15.969291 -0.000000 0.000000 0.000000 -0.000000 0.000000 0.000000 0.000000 0.000000 0.000000
40.059045 68.919762 318.452002 0.230891 -0.208146 -15.913533 -0.279114 0.136860 15.914286 -0.000000 0.000000 0.000000 -1.174248 -0.461125 0.240772 0.000000 0.000000 0.000000 -0.000000 0.000000 0.000000 -0.087287 -1.155264 0.067248 0.088661 1.155159 -0.069021 0.649107 -2.479305 0.227665 0.000000 0.000000 0.000000 0.000000 0.000000 0.000000 -0.000000 0.000000 0.000000 -0.528294 -1.212198 0.133492 6.500370 -2.932738 0.555255 -2.531967 -5.028876 1.536735 0.000000 0.000000 0.000000 0.000000 0.000000 0.000000 -0.279114 0.136860 15.914286 -1.063024 0.620724 -0.315939 -9.894808 -39.188449 -17.369684 0.000000 0.000000 0.000000 -0.279114 0.136860 15.914286 -0.000000 0.000000 0.000000 -0.000000 0.000000 0.000000 0.000000 0.000000 0.000000
40.061596 68.921378 318.426649 0.221464 -0.206468 -15.802379 -0.269320 0.138354 15.803103 -0.000000 0.000000 0.000000 -1.221015 -0.433064 0.232019 0.000000 0.000000 0.000000 -0.000000 0.000000 0.000000 0.053297 -1.380294 0.043344 -0.052268 1.380334 -0.042073 1.168824 -3.072126 0.223979 0.000000 0.000000 0.000000 0.000000 0.000000 0.000000 -0.000000 0.000000 0.000000 -0.545173 -1.431223 0.144165 6.582629 -2.211481 0.408911 -3.596048 -4.351523 1.563226 0.000000 0.000000 0.000000 0.000000 0.000000 0.000000 -0.269320 0.138354 15.803103 -1.000781 0.660778 -0.308052 -5.913548 -30.774804 -12.044241 0.000000 0.000000 0.000000 -0.269320 0.138354 15.803103 -0.000000 0.000000 0.000000 -0.000000 0.000000 0.000000 0.000000 0.000000 0.000000
40.065041 68.922074 318.401799 0.201765 -0.209705 -15.702600 -0.250991 0.147271 15.703292 -0.000000 0.000000 0.000000 -1.203933 -0.372837 0.207712 0.000000 0.000000 0.000000 -0.000000 0.000000 0.000000 0.128269 -1.491477 0.030446 -0.127519 1.491541 -0.027116 1.552574 -2.981504 0.144096 0.000000 0.000000 0.000000 0.000000 0.000000 0.000000 -0.000000 0.000000 0.000000 -0.583952 -1.593783 0.156121 6.020118 -1.862682 0.341818 -3.159559 -2.318154 0.772791 0.000000 0.000000 0.000000 0.000000 0.000000 0.000000 -0.250991 0.147271 15.703292 -1.003406 0.747615 -0.320311 -5.128773 -28.800645 -10.985420 0.000000 0.000000 0.000000 -0.250991 0.147271 15.703292 -0.000000 0.000000 0.000000 -0.000000 0.000000 0.000000 0.000000 0.000000 0.000000
